<svg version="1.2" xmlns="http://www.w3.org/2000/svg" viewBox="0 0 100 100" width="32" height="32"><style>.a{fill:#1289A7}</style><path class="a" d="m8.1 52.9h-4v12.1h-4v-31.2h8.6q11 0 11 9.2 0 4.6-3 7.3-2.9 2.6-8.6 2.6zm-4-15.7v12.3h3.6q4.2 0 6-1.5 1.9-1.6 1.9-4.8 0-6-7.2-6zm31.6 28.2q-11.4 0-11.4-16.1 0-15.9 11.4-15.9 5.5 0 8.4 4.1 2.9 4.2 2.9 11.9 0 7.7-3 11.9-2.9 4.1-8.3 4.1zm0-3.4q3.6 0 5.3-3.1 1.8-3.1 1.8-9.5 0-6.5-1.8-9.5-1.7-3-5.3-3-7.2 0-7.2 12.5 0 12.6 7.2 12.6zm16 2v-3.8q4.5 1.8 8.8 1.8 7.5 0 7.5-5.1 0-2.2-1.5-3.4-1.5-1.2-6.1-2.9-4.4-1.5-6.4-3.7-1.9-2.1-1.9-5.6 0-3.7 2.8-5.8 2.7-2.1 7.5-2.1 4.9 0 8.8 1.7l-1.3 3.5q-4.1-1.7-7.7-1.7-6.2 0-6.2 4.4 0 2.2 1.3 3.5 1.5 1.4 5.8 2.9 5.3 1.9 7 3.9 1.8 1.9 1.8 5.1 0 4.1-3 6.4-2.9 2.3-8.4 2.3-5.6 0-8.8-1.4zm38.3-26.7v27.7h-4v-27.7h-8.9v-3.5h21.8v3.5z"/></svg>