<svg version="1.2" xmlns="http://www.w3.org/2000/svg" viewBox="0 0 400 400" width="24" height="24">
	<title>orchestra</title>
	<style>
		.s0 { fill: #ffffff } 
	</style>
	<path id="o" class="s0" aria-label="o"  d="m74.8 399.1q-42 0-57.9-30-14.9-31.1-14.9-67.3 0-33.2 9.3-67.4 9.4-35.2 25.2-65.2 16.8-30.1 36.4-47.7 20.6-18.6 41.1-18.6 6.5 0 14.9 3.1 9.4 2.1 13.1 7.3-11.2 15.5-23.3 38.3-11.2 22.8-21.5 48.7-9.3 24.8-14.9 50.7-5.6 25.9-5.6 47.7 0 20.7 6.5 34.2 7.5 13.4 25.2 13.4 17.7 0 42-21.7 25.2-22.8 47.6-51.8-29.9-30.1-42.9-65.3-13.1-36.2-13.1-87 0-21.7 9.3-49.7 10.3-28 31.8-48.7 22.4-20.7 59.7-20.7 40.1 0 56 24.8 16.8 24.9 16.8 59.1 0 38.3-18.7 86-17.7 47.6-42.9 90.1 11.2 6.2 26.1 6.2 14 0 33.6-7.3 19.6-7.2 38.3-23.8 18.7-17.6 29.9-46.6l16.8 13.5q-20.6 52.8-55.1 77.7-33.6 23.8-66.3 23.8-12.1 0-24.2-2.1-12.2-3.1-22.4-7.2-31.8 41.4-72.8 72.5-41.1 31-83.1 31zm147.5-159.5q22.4-36.2 38.2-77.7 15.9-41.4 15.9-76.6 0-23.8-6.5-34.2-6.6-11.4-19.6-11.4-17.8 0-36.4 28-18.7 27.9-18.7 70.4 0 21.8 6.5 52.8 7.5 31.1 20.6 48.7z"/>
</svg>