<svg version="1.2" xmlns="http://www.w3.org/2000/svg" viewBox="0 0 100 100" width="32" height="32"><style>.a{fill:#6F1E51}</style><path class="a" d="m20.3 35.2v30.8h-3.9v-14.4h-12.3v14.4h-4v-30.8h4v13h12.3v-13zm25.2 27.3v3.5h-17.8v-30.8h17.8v3.4h-13.9v9.6h13.1v3.4h-13.1v10.9zm28.8 3.5h-4l-3-9.6h-10.4l-3.1 9.6h-4l10.2-31h4.1zm-16.3-13h8.1l-2.8-8.9q-0.8-2.6-1.3-4.8-0.4 2.1-1 3.9zm26.2 13h-6.3v-30.8h7.2q6.7 0 10.4 4 3.7 3.9 3.7 11.1 0 7.6-3.8 11.7-3.9 4-11.2 4zm0.5-27.5h-2.9v24.1h2.1q11.2 0 11.2-12.2 0-11.9-10.4-11.9z"/></svg>